<!DOCTYPE svg PUBLIC "-//W3C//DTD SVG 20010904//EN" "http://www.w3.org/TR/2001/REC-SVG-20010904/DTD/svg10.dtd">
<svg version="1.0" xmlns="http://www.w3.org/2000/svg" width="306px" height="163px" viewBox="0 0 3060 1630" preserveAspectRatio="xMidYMid meet">
<g id="layer101" fill="#a24343" stroke="none">
 <path d="M1304 1622 c-14 -9 -140 -155 -184 -212 -19 -25 -40 -48 -47 -53 -6 -4 -40 -31 -75 -61 -35 -29 -73 -59 -85 -65 -17 -9 -23 -21 -23 -46 0 -28 -4 -35 -19 -35 -11 0 -23 5 -26 11 -5 7 -14 5 -30 -5 -17 -11 -80 -18 -256 -26 -129 -6 -270 -15 -314 -21 -44 -6 -95 -13 -114 -15 -18 -2 -36 -5 -38 -8 -10 -10 96 -133 133 -153 22 -13 99 -42 170 -67 127 -44 132 -44 337 -57 155 -9 207 -16 207 -25 0 -8 8 -18 19 -23 10 -6 24 -32 32 -58 17 -63 95 -213 172 -333 20 -33 37 -62 37 -65 0 -9 103 -117 199 -211 95 -92 100 -94 264 -94 89 0 130 5 272 36 39 8 84 17 100 20 17 3 44 12 62 20 17 8 37 14 45 14 16 0 119 38 133 50 6 4 21 11 34 15 26 8 205 114 265 157 38 27 43 28 168 28 115 0 130 2 148 20 11 11 20 24 20 30 0 21 -63 132 -78 138 -10 3 -31 17 -48 30 l-31 25 5 96 c3 69 9 105 23 129 10 18 19 38 19 43 0 17 125 202 155 229 15 14 31 34 36 45 5 11 13 27 18 35 51 87 64 148 40 191 -5 11 -36 31 -67 45 -53 24 -64 26 -162 20 -104 -6 -105 -6 -135 -39 -16 -19 -46 -60 -65 -92 -42 -70 -148 -192 -183 -210 -14 -7 -49 -16 -79 -20 -86 -12 -173 -32 -199 -46 -31 -17 -195 -37 -214 -26 -8 4 -15 17 -15 27 0 26 -26 25 -40 -1 -18 -32 13 -73 48 -65 15 3 51 9 80 12 49 6 52 5 45 -12 -3 -10 -31 -46 -60 -78 -29 -33 -53 -63 -53 -68 0 -16 -143 3 -165 22 -11 9 -33 24 -50 32 -16 8 -45 23 -62 32 -81 42 -307 101 -413 107 -19 2 -43 9 -52 17 -16 13 -15 16 11 38 16 13 37 41 46 61 10 21 29 52 42 70 14 18 31 52 38 76 12 41 32 212 26 232 -1 5 -7 34 -13 65 -13 71 -27 90 -54 72z m-29 -244 c-13 -64 -56 -166 -80 -188 -14 -13 -25 -27 -25 -32 0 -5 -20 -38 -45 -74 -25 -35 -45 -68 -45 -73 0 -15 62 -62 106 -81 46 -20 194 -60 222 -60 16 0 183 -50 222 -67 9 -4 0 -9 -25 -13 -182 -32 -309 -102 -328 -180 -3 -14 -9 -37 -13 -52 -5 -22 0 -32 22 -53 27 -25 33 -27 99 -21 39 3 133 9 211 12 120 5 145 4 165 -10 14 -8 42 -18 64 -21 21 -2 48 -14 60 -25 29 -27 40 -25 80 15 38 38 38 36 29 60 -20 52 -269 100 -489 93 -121 -3 -124 1 -23 32 53 16 101 20 297 23 218 3 235 2 258 -16 20 -16 29 -18 48 -9 51 23 39 98 -16 109 -30 6 -30 6 -11 27 10 11 22 29 25 38 20 56 284 159 323 127 11 -9 21 -9 38 -1 13 6 32 9 42 6 14 -3 28 9 51 43 18 27 50 68 72 93 22 25 41 51 41 57 0 23 69 121 100 143 39 28 93 35 148 21 48 -13 50 -18 22 -54 -11 -14 -20 -32 -20 -40 0 -9 -4 -18 -9 -21 -5 -4 -31 -43 -57 -89 -41 -72 -94 -149 -163 -238 -14 -18 -19 -41 -20 -85 0 -32 -7 -76 -15 -96 -9 -21 -16 -53 -16 -72 0 -19 -4 -37 -9 -40 -4 -3 -11 -19 -14 -35 -4 -18 -39 -62 -99 -123 -82 -82 -105 -100 -191 -141 -54 -26 -104 -47 -112 -47 -8 0 -29 -6 -47 -14 -34 -14 -103 -33 -218 -60 -40 -9 -126 -16 -222 -17 -155 -2 -158 -1 -190 24 -69 54 -156 144 -194 202 -21 33 -42 62 -45 65 -6 5 -25 40 -59 108 -11 23 -25 42 -29 42 -5 0 -13 15 -16 32 -7 34 -34 84 -69 130 -50 63 -56 73 -56 83 0 26 -31 71 -59 88 -25 15 -41 16 -110 8 -202 -22 -347 1 -526 84 l-60 28 30 9 c17 4 37 5 45 2 31 -12 477 5 558 22 25 5 62 58 62 88 0 18 76 95 94 96 5 0 16 7 25 15 9 8 42 36 73 62 32 27 65 58 73 71 22 31 28 28 20 -10z m1480 -928 c4 -6 -7 -10 -24 -10 -33 0 -34 1 -25 24 5 12 11 13 24 6 11 -6 22 -15 25 -20z"/>
 <path d="M720 1232 c-8 -4 -26 -14 -40 -23 -14 -9 -53 -22 -87 -27 -93 -16 -116 -35 -33 -27 36 4 69 11 75 16 5 5 27 9 50 9 22 0 50 3 63 6 25 7 30 24 7 24 -9 0 -12 6 -9 15 6 16 -1 18 -26 7z"/>
 <path d="M53 1193 c-26 -10 -12 -23 25 -23 35 1 36 2 18 15 -21 16 -24 16 -43 8z"/>
 <path d="M1325 1101 c-3 -5 -1 -12 5 -16 5 -3 10 1 10 9 0 18 -6 21 -15 7z"/>
 <path d="M2 1068 c3 -7 13 -15 24 -17 16 -3 17 -1 5 13 -16 19 -34 21 -29 4z"/>
 </g>

</svg>