<!DOCTYPE svg PUBLIC "-//W3C//DTD SVG 20010904//EN" "http://www.w3.org/TR/2001/REC-SVG-20010904/DTD/svg10.dtd">
<svg version="1.0" xmlns="http://www.w3.org/2000/svg" width="265px" height="162px" viewBox="0 0 2650 1620" preserveAspectRatio="xMidYMid meet">
<g id="layer101" fill="#007691" stroke="none">
 <path d="M1134 1533 c-87 -7 -196 -15 -241 -19 -54 -4 -83 -10 -83 -18 0 -13 88 -41 160 -51 97 -13 150 -28 150 -42 0 -17 -22 -52 -77 -124 -24 -30 -43 -58 -43 -62 0 -6 140 -76 165 -83 6 -1 39 -10 75 -18 36 -9 99 -26 141 -37 l75 -21 49 33 48 32 -57 29 c-32 16 -97 43 -144 59 -48 17 -93 37 -101 44 -14 14 -12 18 91 191 26 45 48 84 48 87 0 11 -106 11 -256 0z"/>
 <path d="M2310 473 c-25 -19 -69 -55 -99 -81 -94 -82 -114 -83 -211 -7 -25 19 -50 38 -57 41 -12 6 -153 -81 -153 -95 0 -12 78 -74 120 -96 19 -10 78 -47 133 -83 l98 -66 98 98 99 98 105 -109 c109 -112 192 -180 201 -164 3 5 -17 43 -44 85 -48 72 -96 157 -185 330 -23 44 -46 81 -51 82 -5 1 -29 -13 -54 -33z"/>
 <path d="M510 409 c-52 -4 -132 -10 -178 -13 -46 -3 -87 -8 -93 -11 -5 -4 17 -39 50 -79 35 -43 56 -77 52 -84 -4 -7 -27 -16 -52 -21 -53 -11 -174 -47 -189 -56 -34 -21 13 -25 290 -25 165 0 300 4 300 9 0 8 -54 60 -128 124 -18 15 -32 34 -32 43 0 8 -3 13 -7 11 -5 -3 -17 -1 -28 4 -18 7 -17 8 5 7 24 0 188 37 196 45 3 2 -5 16 -17 30 -22 29 -17 29 -169 16z"/>
 </g>

</svg>